<svg xmlns="http://www.w3.org/2000/svg" viewBox="0 0 64 64" role="img" aria-label="LinguaFlow">
  <rect width="64" height="64" rx="14" fill="#047857"/>
  <path d="M20 39.5c0-12.1 11.7-15.1 11.7-28.2 8.6 6.6 13.2 13.2 13.2 21.2 0 9.3-6.1 16.1-14.2 16.1-5.8 0-10.7-3.6-10.7-9.1Z" fill="#D1FAE5"/>
  <path d="M31.3 48.6c-4.1-1.4-6.8-4.6-6.8-8.7 0-6 5.6-8.3 7.1-14.9 5.3 4.3 8 8.2 8 13.3 0 5.9-3.4 9.4-8.3 10.3Z" fill="#FACC15"/>
  <path d="M18 19.5c0-3.2 2.6-5.7 5.8-5.7h13.5c3.2 0 5.8 2.5 5.8 5.7v4.3c0 3.1-2.6 5.7-5.8 5.7h-7.4l-7.1 5.3v-5.3h-1.1c-2.1 0-3.7-1.7-3.7-3.8v-6.2Z" fill="#FFFFFF"/>
  <path d="M24.9 21.8h11.2M24.9 26h7.4" stroke="#047857" stroke-width="3" stroke-linecap="round"/>
</svg>
